<svg width="416" height="413" viewBox="0 0 416 413" fill="none" xmlns="http://www.w3.org/2000/svg">
<path fill-rule="evenodd" clip-rule="evenodd" d="M92 23.5C92 10.5213 102.521 0 115.5 0C128.479 0 139 10.5213 139 23.5V90H277V24C277 10.7452 287.745 0 301 0C314.255 0 325 10.7452 325 24V90H392C405.255 90 416 100.745 416 114C416 127.255 405.255 138 392 138H325V275H389C402.255 275 413 285.745 413 299C413 312.255 402.255 323 389 323H325V389C325 402.255 314.255 413 301 413C287.745 413 277 402.255 277 389V323H139V389.5C139 402.479 128.479 413 115.5 413C102.521 413 92 402.479 92 389.5V323H24C10.7452 323 0 312.255 0 299C0 285.745 10.7452 275 24 275H92V138H27C13.7452 138 3 127.255 3 114C3 100.745 13.7452 90 27 90H92V23.5Z" fill="url(#paint0_radial)"/>
<ellipse cx="208" cy="176.237" rx="61" ry="63.0678" fill="#BEC1FF"/>
<ellipse cx="209.857" cy="170.551" rx="58.7212" ry="62.5508" fill="#35375E"/>
<circle cx="209.857" cy="168.636" r="49.1471" fill="#E5D7D7"/>
<circle cx="209.857" cy="169.274" r="22.3396" fill="#033D3E"/>
<circle cx="196.627" cy="154.525" r="11.3729" fill="white"/>
<circle cx="225.059" cy="186.059" r="8.78814" fill="white"/>
<ellipse cx="120" cy="169" rx="10" ry="7" fill="white"/>
<ellipse cx="126.5" cy="200.5" rx="6.5" ry="4.5" fill="white"/>
<ellipse cx="101.456" cy="381.884" rx="5.28793" ry="4.5" transform="rotate(30.5583 101.456 381.884)" fill="white"/>
<ellipse cx="313.324" cy="393.146" rx="4.08743" ry="3.47838" transform="rotate(-33.0923 313.324 393.146)" fill="white"/>
<ellipse cx="289.5" cy="125.5" rx="6.5" ry="4.5" fill="white"/>
<ellipse cx="397.349" cy="292.904" rx="6.5" ry="4.5" transform="rotate(-123.684 397.349 292.904)" fill="white"/>
<ellipse cx="16.8075" cy="308.745" rx="6.5" ry="4.5" transform="rotate(-136.265 16.8075 308.745)" fill="white"/>
<ellipse cx="18.2354" cy="102.894" rx="6.5" ry="4.5" transform="rotate(-49.407 18.2354 102.894)" fill="white"/>
<ellipse cx="108.559" cy="397.833" rx="9.50336" ry="6.57925" transform="rotate(34.903 108.559 397.833)" fill="white"/>
<path d="M247.288 271.53C247.288 290.277 231.541 305.474 210.291 305.474C189.04 305.474 171.813 290.277 171.813 271.53C171.813 254.557 183.944 263.259 200.517 265.058C204.032 265.439 207.548 264.716 210.885 263.548C233.159 255.75 247.288 254.065 247.288 271.53Z" fill="#BEC1FF"/>
<path d="M247.288 267.777C247.288 285.627 231.541 300.098 210.291 300.098C189.04 300.098 171.813 285.628 171.813 267.777C171.813 251.539 184.06 259.981 200.755 261.638C204.116 261.972 207.477 261.315 210.681 260.245C233.073 252.762 247.288 251.097 247.288 267.777Z" fill="#35375E"/>
<path fill-rule="evenodd" clip-rule="evenodd" d="M226.387 255.975C225.986 266.991 216.47 275.804 204.79 275.804C194.053 275.804 185.144 268.356 183.465 258.595C184.825 258.847 186.269 259.15 187.787 259.469C191.737 260.298 196.188 261.233 200.977 261.646C204.189 261.924 207.4 261.331 210.47 260.35C216.332 258.478 221.67 256.956 226.387 255.975Z" fill="#FEFBEA"/>
<defs>
<radialGradient id="paint0_radial" cx="0" cy="0" r="1" gradientUnits="userSpaceOnUse" gradientTransform="translate(208 237.5) rotate(90) scale(203.5 204.978)">
<stop offset="0.130208" stop-color="#4E54C8"/>
<stop offset="0.578125" stop-color="#8F94FB"/>
</radialGradient>
</defs>
</svg>
