<svg width="51" height="51" viewBox="0 0 51 51" fill="none" xmlns="http://www.w3.org/2000/svg">
<g filter="url(#filter0_ddd)">
<rect x="16" y="14" width="19" height="19" rx="9.5" fill="white"/>
<rect x="16.6" y="14.6" width="17.8" height="17.8" rx="8.9" stroke="url(#paint0_linear)" stroke-width="1.2"/>
</g>
<path d="M22.125 20.8125H21C21 22.9746 22.7578 24.75 24.9375 24.75V27C24.9375 27.3164 25.1836 27.5625 25.4824 27.5625C25.7637 27.5625 26.0625 27.3164 26.0625 27V24.75C26.0625 22.5879 24.2871 20.8125 22.125 20.8125ZM28.875 19.6875C27.3809 19.6875 26.0977 20.5137 25.4297 21.7266C25.9043 22.2539 26.2734 22.9043 26.4668 23.6074C28.4531 23.4141 30 21.7266 30 19.6875H28.875Z" fill="url(#paint1_linear)"/>
<defs>
<filter id="filter0_ddd" x="0" y="0" width="51" height="51" filterUnits="userSpaceOnUse" color-interpolation-filters="sRGB">
<feFlood flood-opacity="0" result="BackgroundImageFix"/>
<feColorMatrix in="SourceAlpha" type="matrix" values="0 0 0 0 0 0 0 0 0 0 0 0 0 0 0 0 0 0 127 0" result="hardAlpha"/>
<feOffset dy="2"/>
<feGaussianBlur stdDeviation="8"/>
<feColorMatrix type="matrix" values="0 0 0 0 0.1294 0 0 0 0 0.1686 0 0 0 0 0.2118 0 0 0 0.08 0"/>
<feBlend mode="normal" in2="BackgroundImageFix" result="effect1_dropShadow"/>
<feColorMatrix in="SourceAlpha" type="matrix" values="0 0 0 0 0 0 0 0 0 0 0 0 0 0 0 0 0 0 127 0" result="hardAlpha"/>
<feOffset dy="1"/>
<feGaussianBlur stdDeviation="1.5"/>
<feColorMatrix type="matrix" values="0 0 0 0 0.2511 0 0 0 0 0.2606 0 0 0 0 0.27 0 0 0 0.12 0"/>
<feBlend mode="normal" in2="effect1_dropShadow" result="effect2_dropShadow"/>
<feColorMatrix in="SourceAlpha" type="matrix" values="0 0 0 0 0 0 0 0 0 0 0 0 0 0 0 0 0 0 127 0" result="hardAlpha"/>
<feOffset/>
<feColorMatrix type="matrix" values="0 0 0 0 0.0242 0 0 0 0 0.1728 0 0 0 0 0.3198 0 0 0 0.1 0"/>
<feBlend mode="normal" in2="effect2_dropShadow" result="effect3_dropShadow"/>
<feBlend mode="normal" in="SourceGraphic" in2="effect3_dropShadow" result="shape"/>
</filter>
<linearGradient id="paint0_linear" x1="17.1585" y1="17.0122" x2="31.2927" y2="31.378" gradientUnits="userSpaceOnUse">
<stop stop-color="#00E8FF"/>
<stop offset="1" stop-color="#47F648"/>
</linearGradient>
<linearGradient id="paint1_linear" x1="21.9474" y1="19.9474" x2="27.3947" y2="26.1053" gradientUnits="userSpaceOnUse">
<stop stop-color="#05E9F5"/>
<stop offset="1" stop-color="#46F64C"/>
</linearGradient>
</defs>
</svg>
