<svg width="19" height="19" viewBox="0 0 19 19" fill="none" xmlns="http://www.w3.org/2000/svg">
<path d="M18.4727 5.27734C19.1406 4.60938 19.1406 3.51953 18.4727 2.88672L16.3633 0.777344C15.7305 0.109375 14.6406 0.109375 13.9727 0.777344L12.3555 2.39453C12.2148 2.53516 12.2148 2.81641 12.3555 2.99219L16.2578 6.89453C16.4336 7.03516 16.7148 7.03516 16.8555 6.89453L18.4727 5.27734ZM10.9844 3.76562L1.73828 13.0117L1 17.2656C0.894531 17.8633 1.38672 18.3555 1.98438 18.25L6.23828 17.5117L15.4844 8.26562C15.6602 8.125 15.6602 7.84375 15.4844 7.66797L11.582 3.76562C11.4062 3.625 11.125 3.625 10.9844 3.76562ZM4.09375 15.1562H5.78125V16.457L3.49609 16.8438L2.40625 15.7539L2.79297 13.4688H4.09375V15.1562Z" fill="#3574F4"/>
</svg>
