<svg width="17" height="17" viewBox="0 0 17 17" fill="none" xmlns="http://www.w3.org/2000/svg">
<path d="M8.5 0.390625C3.95117 0.390625 0.265625 4.10938 0.265625 8.625C0.265625 13.1738 3.95117 16.8594 8.5 16.8594C13.0156 16.8594 16.7344 13.1738 16.7344 8.625C16.7344 4.10938 13.0156 0.390625 8.5 0.390625ZM8.5 4.04297C9.26367 4.04297 9.89453 4.67383 9.89453 5.4375C9.89453 6.23438 9.26367 6.83203 8.5 6.83203C7.70312 6.83203 7.10547 6.23438 7.10547 5.4375C7.10547 4.67383 7.70312 4.04297 8.5 4.04297ZM10.3594 12.4766C10.3594 12.709 10.1602 12.875 9.96094 12.875H7.03906C6.80664 12.875 6.64062 12.709 6.64062 12.4766V11.6797C6.64062 11.4805 6.80664 11.2812 7.03906 11.2812H7.4375V9.15625H7.03906C6.80664 9.15625 6.64062 8.99023 6.64062 8.75781V7.96094C6.64062 7.76172 6.80664 7.5625 7.03906 7.5625H9.16406C9.36328 7.5625 9.5625 7.76172 9.5625 7.96094V11.2812H9.96094C10.1602 11.2812 10.3594 11.4805 10.3594 11.6797V12.4766Z" fill="#EEAC00"/>
</svg>
