<svg width="39" height="39" viewBox="0 0 39 39" fill="none" xmlns="http://www.w3.org/2000/svg">
<path d="M36 15.1885H23.625V2.81348C23.625 1.35254 22.3359 0.0634766 20.875 0.0634766H18.125C16.5781 0.0634766 15.375 1.35254 15.375 2.81348V15.1885H3C1.45312 15.1885 0.25 16.4775 0.25 17.9385V20.6885C0.25 22.2354 1.45312 23.4385 3 23.4385H15.375V35.8135C15.375 37.3604 16.5781 38.5635 18.125 38.5635H20.875C22.3359 38.5635 23.625 37.3604 23.625 35.8135V23.4385H36C37.4609 23.4385 38.75 22.2354 38.75 20.6885V17.9385C38.75 16.4775 37.4609 15.1885 36 15.1885Z" fill="#111827"/>
</svg>
