<svg width="41" height="41" viewBox="0 0 41 41" fill="none" xmlns="http://www.w3.org/2000/svg">
<rect width="41" height="41" rx="20.5" fill="#111827"/>
<path fill-rule="evenodd" clip-rule="evenodd" d="M28.1408 7.75246C28.3149 7.58683 28.5796 7.81268 28.4435 8.01068L23.4402 15.2871C23.3443 15.4264 23.4539 15.6144 23.6224 15.5996L26.5448 15.344C26.7229 15.3284 26.8304 15.5367 26.7145 15.6729L21.5634 21.7223C21.4474 21.8585 21.5549 22.0668 21.7331 22.0512L24.8687 21.777C25.0571 21.7605 25.161 21.9907 25.0239 22.1211L12.5968 33.9445C12.4227 34.1102 12.158 33.8843 12.2941 33.6863L17.3658 26.3104C17.4616 26.1711 17.352 25.9831 17.1836 25.9979L14.1952 26.2593C14.0176 26.2749 13.91 26.0679 14.0247 25.9314L19.0231 19.9869C19.1378 19.8505 19.0302 19.6434 18.8526 19.659L15.869 19.92C15.6806 19.9365 15.5767 19.7063 15.7137 19.5759L28.1408 7.75246Z" fill="url(#paint0_linear)"/>
<defs>
<linearGradient id="paint0_linear" x1="23.3143" y1="13.6667" x2="16.481" y2="30.951" gradientUnits="userSpaceOnUse">
<stop stop-color="#FFE700"/>
<stop offset="0.350533" stop-color="#FA51D3"/>
<stop offset="0.612727" stop-color="#10D9ED"/>
<stop offset="1" stop-color="#50FF51"/>
</linearGradient>
</defs>
</svg>
