<svg width="17" height="17" viewBox="0 0 17 17" fill="none" xmlns="http://www.w3.org/2000/svg">
<path d="M16.5312 4.46875C17.125 3.875 17.125 2.90625 16.5312 2.34375L14.6562 0.46875C14.0938 -0.125 13.125 -0.125 12.5312 0.46875L11.0938 1.90625C10.9688 2.03125 10.9688 2.28125 11.0938 2.4375L14.5625 5.90625C14.7188 6.03125 14.9688 6.03125 15.0938 5.90625L16.5312 4.46875ZM9.875 3.125L1.65625 11.3438L1 15.125C0.90625 15.6562 1.34375 16.0938 1.875 16L5.65625 15.3438L13.875 7.125C14.0312 7 14.0312 6.75 13.875 6.59375L10.4062 3.125C10.25 3 10 3 9.875 3.125ZM3.75 13.25H5.25V14.4062L3.21875 14.75L2.25 13.7812L2.59375 11.75H3.75V13.25Z" fill="#3574F4"/>
</svg>
