<svg width="10" height="8" viewBox="0 0 10 8" fill="none" xmlns="http://www.w3.org/2000/svg" fill-rule='evenodd' clip-rule='evenodd'>
<path d="M9.20643 0.792787C9.3939 0.980314 9.49922 1.23462 9.49922 1.49979C9.49922 1.76495 9.3939 2.01926 9.20643 2.20679L4.20643 7.20679C4.0189 7.39426 3.76459 7.49957 3.49943 7.49957C3.23427 7.49957 2.97996 7.39426 2.79243 7.20679L0.792431 5.20679C0.610272 5.01818 0.509478 4.76558 0.511757 4.50339C0.514035 4.24119 0.619204 3.99038 0.804612 3.80497C0.99002 3.61956 1.24083 3.51439 1.50303 3.51211C1.76523 3.50983 2.01783 3.61063 2.20643 3.79279L3.49943 5.08579L7.79243 0.792787C7.97996 0.605316 8.23427 0.5 8.49943 0.5C8.7646 0.5 9.0189 0.605316 9.20643 0.792787Z" fill="white"/>
</svg>
