<svg width="18" height="18" viewBox="0 0 18 18" fill="none" xmlns="http://www.w3.org/2000/svg">
<path d="M0.75 13.834V15.1875C0.75 16.3477 3.48926 17.25 6.9375 17.25C10.3213 17.25 13.125 16.3477 13.125 15.1875V13.834C11.7715 14.7686 9.35449 15.1875 6.9375 15.1875C4.48828 15.1875 2.07129 14.7686 0.75 13.834ZM11.0625 4.875C14.4463 4.875 17.25 3.97266 17.25 2.8125C17.25 1.68457 14.4785 0.75 11.0625 0.75C7.61426 0.75 4.875 1.68457 4.875 2.8125C4.875 3.97266 7.61426 4.875 11.0625 4.875ZM0.75 10.4502V12.0938C0.75 13.2539 3.48926 14.1562 6.9375 14.1562C10.3213 14.1562 13.125 13.2539 13.125 12.0938V10.4502C11.7715 11.5459 9.35449 12.0938 6.9375 12.0938C4.48828 12.0938 2.07129 11.5459 0.75 10.4502ZM14.1562 10.8047C15.9932 10.4502 17.25 9.77344 17.25 9V7.64648C16.4766 8.16211 15.3809 8.5166 14.1562 8.74219V10.8047ZM6.9375 5.90625C3.48926 5.90625 0.75 7.06641 0.75 8.48438C0.75 9.93457 3.48926 11.0625 6.9375 11.0625C10.3213 11.0625 13.125 9.93457 13.125 8.48438C13.125 7.06641 10.3213 5.90625 6.9375 5.90625ZM13.9951 7.74316C15.9287 7.38867 17.25 6.71191 17.25 5.90625V4.55273C16.0898 5.3584 14.124 5.77734 12.0615 5.90625C12.9961 6.35742 13.7051 6.96973 13.9951 7.74316Z" fill="#111827" fill-opacity="0.4"/>
</svg>
