<svg width="59" height="63" viewBox="0 0 59 63" fill="none" xmlns="http://www.w3.org/2000/svg">
<path d="M59.0011 3.90083V58.5124C59.0011 60.6579 56.6972 62.4132 53.8812 62.4132H7.80273V0H53.8812C56.6972 0 59.0011 1.75537 59.0011 3.90083Z" fill="#0D0D0D"/>
<path d="M5.85124 7.80171H7.80165V3.90088H5.85124C2.61343 3.90088 0 6.51431 0 9.75212C0 12.9897 2.61343 15.6034 5.85124 15.6034H7.80165V11.7025H5.85124C4.75889 11.7025 3.90083 10.8442 3.90083 9.75212C3.90083 8.65977 4.75889 7.80171 5.85124 7.80171Z" fill="#0D0D0D"/>
<path d="M15.6044 9.7522C15.6044 12.9898 12.991 15.6034 9.75315 15.6034H7.80273V11.7026H9.75315C10.8455 11.7026 11.7036 10.8443 11.7036 9.7522H15.6044Z" fill="#636363"/>
<path d="M5.85124 27.3059H7.80165V23.405H5.85124C2.61343 23.405 0 26.0185 0 29.2563C0 32.4938 2.61343 35.1075 5.85124 35.1075H7.80165V31.2067H5.85124C4.75889 31.2067 3.90083 30.3484 3.90083 29.2563C3.90083 28.1639 4.75889 27.3059 5.85124 27.3059Z" fill="#0D0D0D"/>
<path d="M15.6044 29.2563C15.6044 32.4939 12.991 35.1076 9.75315 35.1076H7.80273V31.2068H9.75315C10.8455 31.2068 11.7036 30.3485 11.7036 29.2563H15.6044Z" fill="#636363"/>
<path d="M5.85124 46.81H7.80165V42.9092H5.85124C2.61343 42.9092 0 45.5226 0 48.7604C0 51.998 2.61343 54.6117 5.85124 54.6117H7.80165V50.7108H5.85124C4.75889 50.7108 3.90083 49.8525 3.90083 48.7604C3.90083 47.6681 4.75889 46.81 5.85124 46.81Z" fill="#0D0D0D"/>
<path d="M15.6044 48.7603C15.6044 51.9978 12.991 54.6115 9.75315 54.6115H7.80273V50.7107H9.75315C10.8455 50.7107 11.7036 49.8524 11.7036 48.7603H15.6044Z" fill="#636363"/>
<path d="M45.0137 23.2769C42.9376 23.2769 41.1613 24.3133 39.7576 25.5938C38.5006 26.7406 37.524 28.0996 36.8755 29.14C36.2271 28.0996 35.2505 26.7406 33.9934 25.5938C32.5898 24.3133 30.8134 23.2769 28.7374 23.2769C24.57 23.2769 21.2051 26.8615 21.2051 31.2371C21.2051 35.6128 24.57 39.1973 28.7374 39.1973C30.8132 39.1973 32.5896 38.1609 33.9932 36.8803C35.2504 35.7334 36.227 34.3743 36.8755 33.3338C37.524 34.3743 38.5006 35.7334 39.7576 36.8803C41.1612 38.1609 42.9376 39.1973 45.0137 39.1973C49.1811 39.1973 52.546 35.6128 52.546 31.2371C52.546 26.8615 49.1811 23.2769 45.0137 23.2769ZM28.7374 37.1553C25.727 37.1553 23.2471 34.5174 23.2471 31.2371C23.2471 27.9567 25.727 25.3189 28.7374 25.3189C30.5099 25.3189 32.0913 26.4652 33.3384 27.8269C34.5098 29.1058 35.3479 30.5332 35.7276 31.2371C35.3479 31.941 34.5099 33.3683 33.3386 34.6473C32.0916 36.0089 30.5101 37.1553 28.7374 37.1553ZM45.0137 37.1553C43.2412 37.1553 41.6598 36.0089 40.4126 34.6473C39.2413 33.3683 38.4031 31.941 38.0234 31.2371C38.4031 30.5332 39.2413 29.1058 40.4126 27.8269C41.6598 26.4652 43.2412 25.3189 45.0137 25.3189C48.0241 25.3189 50.5039 27.9567 50.5039 31.2371C50.5039 34.5174 48.0241 37.1553 45.0137 37.1553Z" fill="white" stroke="white" stroke-width="0.5"/>
</svg>
