<svg width="32" height="29" viewBox="0 0 32 29" fill="none" xmlns="http://www.w3.org/2000/svg">
<path d="M28.4836 6.65558H28.0935V2.86736C28.0935 1.28633 26.8072 0 25.2261 0H4.42914C2.13417 0 0.241966 1.75538 0.0235351 3.99391C-0.00982344 4.15209 0.00205515 2.74266 0.00205515 24.573C0.00205515 27.0141 1.98799 29 4.42908 29H28.4835C30.0646 29 31.3509 27.7137 31.3509 26.1326V9.52293C31.3509 7.94191 30.0647 6.65558 28.4836 6.65558ZM4.42914 1.96957H25.2261C25.7212 1.96957 26.124 2.37233 26.124 2.86742V6.65564H4.42914C3.11246 6.65564 2.03459 5.61469 1.97452 4.3126C2.03452 3.01045 3.1124 1.96957 4.42914 1.96957ZM28.4836 27.0305H4.42914C3.07405 27.0305 1.97162 25.9281 1.97162 24.573V7.87876C2.67517 8.35003 3.52058 8.62508 4.42914 8.62508H28.4836C28.9787 8.62508 29.3814 9.02785 29.3814 9.52293V13.5152H21.9707C19.4468 13.5152 17.3935 15.5685 17.3935 18.0924C17.3935 20.6162 19.4468 22.6695 21.9707 22.6695H29.3814V26.1326C29.3814 26.6277 28.9787 27.0305 28.4836 27.0305ZM29.3814 20.7001H21.9707C20.5328 20.7001 19.363 19.5303 19.363 18.0924C19.363 16.6546 20.5327 15.4848 21.9707 15.4848H29.3814V20.7001Z" fill="#A4A4A4"/>
</svg>
