<svg width="41" height="41" viewBox="0 0 41 41" fill="none" xmlns="http://www.w3.org/2000/svg">
<circle cx="20.5" cy="20.5" r="20.5" fill="#0E0E0E"/>
<path d="M11.4457 12.5806C12.6963 11.2167 14.2655 10.1498 16.035 9.49778C16.2039 9.43556 16.3896 9.56156 16.3896 9.75762V12.0977C16.3896 12.2102 16.3222 12.3161 16.2137 12.3678C15.3174 12.7956 14.503 13.367 13.8004 14.0523C13.6998 14.1504 13.5512 14.1695 13.4378 14.1041L11.5182 12.9958C11.3621 12.9057 11.3327 12.704 11.4457 12.5806ZM22.2026 29.2557C26.1557 28.3042 29.0932 24.7453 29.0932 20.4999C29.0932 16.2545 26.1557 12.6957 22.2026 11.7441C22.0614 11.7102 21.9645 11.5881 21.9645 11.453V9.25498C21.9645 9.07843 22.1187 8.9525 22.2799 8.983C27.7058 10.0095 31.8092 14.7757 31.8092 20.4999C31.8092 26.2242 27.7058 30.9904 22.2799 32.0169C22.1187 32.0474 21.9645 31.9214 21.9645 31.7449V29.5469C21.9645 29.4118 22.0614 29.2897 22.2026 29.2557ZM13.0984 26.1794C13.9376 27.2109 15.0006 28.0531 16.2137 28.632C16.3222 28.6838 16.3896 28.7896 16.3896 28.9022V31.2422C16.3896 31.4383 16.2039 31.5643 16.0349 31.5021C13.9177 30.7219 12.0873 29.3478 10.7463 27.5816C10.6506 27.4556 10.6871 27.2691 10.834 27.1843L12.7115 26.1003C12.8358 26.0286 13.0007 26.0594 13.0984 26.1794ZM18.105 6.396H20.2492C20.407 6.396 20.5351 6.52399 20.5351 6.68189V34.3181C20.5351 34.476 20.407 34.604 20.2492 34.604H18.105C17.9471 34.604 17.8191 34.476 17.8191 34.3181V6.68189C17.8191 6.52399 17.9471 6.396 18.105 6.396Z" fill="white"/>
</svg>
