<svg width="14" height="17" viewBox="0 0 14 17" fill="none" xmlns="http://www.w3.org/2000/svg">
<path d="M4.28125 0.125C4.125 -0.03125 3.90625 -0.03125 3.75 0.125L0.625 3.25C0.46875 3.40625 0.46875 3.65625 0.625 3.78125L1.25 4.40625C1.375 4.5625 1.625 4.5625 1.78125 4.40625L3.25 2.8125L3.25 15.625C3.25 15.8438 3.4375 16 3.625 16H4.375C4.59375 16 4.75 15.8438 4.75 15.625L4.75 2.8125L6.25 4.40625C6.40625 4.5625 6.65625 4.5625 6.78125 4.40625L7.40625 3.78125C7.5625 3.65625 7.5625 3.40625 7.40625 3.25L4.28125 0.125ZM10.2812 15.9062L13.4062 12.7812C13.5625 12.625 13.5625 12.375 13.4062 12.25L12.7812 11.625C12.6562 11.4688 12.4062 11.4688 12.25 11.625L10.75 13.2188L10.75 0.375C10.75 0.1875 10.5938 0 10.375 0H9.625C9.4375 0 9.25 0.1875 9.25 0.375L9.25 13.2188L7.78125 11.625C7.625 11.4688 7.375 11.4688 7.25 11.625L6.625 12.25C6.46875 12.375 6.46875 12.625 6.625 12.7812L9.75 15.9062C9.90625 16.0625 10.125 16.0625 10.2812 15.9062Z" fill="#111827"/>
</svg>
