<svg width="18" height="15" viewBox="0 0 18 15" fill="none" xmlns="http://www.w3.org/2000/svg">
<path d="M15.1875 0.5H2.8125C1.68457 0.5 0.75 1.43457 0.75 2.5625V12.875C0.75 14.0352 1.68457 14.9375 2.8125 14.9375H15.1875C16.3154 14.9375 17.25 14.0352 17.25 12.875V2.5625C17.25 1.43457 16.3477 0.5 15.1875 0.5ZM4.35938 2.5625C5.19727 2.5625 5.90625 3.27148 5.90625 4.10938C5.90625 4.97949 5.22949 5.65625 4.35938 5.65625C3.45703 5.65625 2.8125 4.97949 2.8125 4.10938C2.8125 3.27148 3.52148 2.5625 4.35938 2.5625ZM15.1553 12.6172C15.0586 12.7783 14.8652 12.875 14.7041 12.875H3.4248C3.19922 12.875 3.03809 12.7783 2.94141 12.6172C2.87695 12.4238 2.87695 12.2305 3.00586 12.0693L5.26172 8.97559C5.3584 8.84668 5.4873 8.75 5.68066 8.75C5.8418 8.75 5.9707 8.84668 6.06738 8.97559L7.13086 10.4258L10.1279 5.91406C10.2246 5.75293 10.3857 5.65625 10.5791 5.65625C10.7402 5.65625 10.9014 5.75293 10.998 5.91406L15.123 12.1016C15.2197 12.2305 15.2197 12.4561 15.1553 12.6172Z" fill="#111827" fill-opacity="0.4"/>
</svg>
