<svg width="73" height="73" viewBox="0 0 73 73" fill="none" xmlns="http://www.w3.org/2000/svg">
<g filter="url(#filter0_ddd_10910_10888)">
<rect x="16" y="14" width="41" height="41" rx="20.5" fill="black"/>
</g>
<path d="M34.3401 42.3997V42.118C34.3466 41.1514 34.4463 40.3809 34.6393 39.8065C34.8388 39.232 35.1283 38.7681 35.5079 38.4146C35.8875 38.0611 36.3443 37.7407 36.8784 37.4535C37.2773 37.2326 37.6344 37.0034 37.9496 36.7659C38.2649 36.5284 38.5158 36.266 38.7024 35.9788C38.889 35.686 38.9823 35.3602 38.9823 35.0011C38.9823 34.62 38.8761 34.2859 38.6638 33.9987C38.4515 33.7115 38.1652 33.4905 37.8049 33.3359C37.451 33.1812 37.0585 33.1039 36.6274 33.1039C36.2092 33.1039 35.8135 33.184 35.4404 33.3441C35.0672 33.4988 34.7616 33.7308 34.5235 34.0401C34.2855 34.3439 34.1568 34.7222 34.1375 35.1751H30.1998C30.232 34.0705 30.5408 33.1591 31.1263 32.4411L42.3602 32.3997C42.9199 33.0846 43.1998 33.9103 43.1998 34.8769C43.1998 35.5231 43.0744 36.0975 42.8234 36.6002C42.5789 37.0973 42.2347 37.5391 41.7908 37.9258C41.3468 38.3069 40.8224 38.6521 40.2176 38.9614C39.7094 39.221 39.2911 39.4916 38.963 39.7733C38.6413 40.055 38.4 40.3809 38.2392 40.7509C38.0848 41.121 38.0043 41.5767 37.9979 42.118V42.3997H34.3401Z" fill="white" fill-opacity="0.8"/>
<path d="M34.7748 46.8139C35.1692 47.2044 35.6442 47.3997 36.1998 47.3997C36.5553 47.3997 36.8831 47.3104 37.1831 47.1319C37.4831 46.9478 37.7247 46.7051 37.9081 46.4038C38.0969 46.097 38.1942 45.7595 38.1997 45.3913C38.1942 44.8446 37.9914 44.3759 37.5914 43.9854C37.1914 43.5949 36.7275 43.3997 36.1998 43.3997C35.6442 43.3997 35.1692 43.5949 34.7748 43.9854C34.3859 44.3759 34.1943 44.8446 34.1998 45.3913C34.1943 45.9436 34.3859 46.4178 34.7748 46.8139Z" fill="white" fill-opacity="0.8"/>
<path d="M36.7045 28.9065C33.6769 28.9065 30.7249 29.5794 28 31H45.3333C42.6084 29.5794 39.7322 28.9065 36.7045 28.9065ZM40.6405 23L35.4934 23.8224L32.9956 23L31.3304 28.0093H42.3057L40.6405 23Z" fill="white" fill-opacity="0.8"/>
<defs>
<filter id="filter0_ddd_10910_10888" x="0" y="0" width="73" height="73" filterUnits="userSpaceOnUse" color-interpolation-filters="sRGB">
<feFlood flood-opacity="0" result="BackgroundImageFix"/>
<feColorMatrix in="SourceAlpha" type="matrix" values="0 0 0 0 0 0 0 0 0 0 0 0 0 0 0 0 0 0 127 0" result="hardAlpha"/>
<feOffset dy="2"/>
<feGaussianBlur stdDeviation="8"/>
<feColorMatrix type="matrix" values="0 0 0 0 0.1294 0 0 0 0 0.1686 0 0 0 0 0.2118 0 0 0 0.08 0"/>
<feBlend mode="normal" in2="BackgroundImageFix" result="effect1_dropShadow_10910_10888"/>
<feColorMatrix in="SourceAlpha" type="matrix" values="0 0 0 0 0 0 0 0 0 0 0 0 0 0 0 0 0 0 127 0" result="hardAlpha"/>
<feOffset dy="1"/>
<feGaussianBlur stdDeviation="1.5"/>
<feColorMatrix type="matrix" values="0 0 0 0 0.2511 0 0 0 0 0.2606 0 0 0 0 0.27 0 0 0 0.12 0"/>
<feBlend mode="normal" in2="effect1_dropShadow_10910_10888" result="effect2_dropShadow_10910_10888"/>
<feColorMatrix in="SourceAlpha" type="matrix" values="0 0 0 0 0 0 0 0 0 0 0 0 0 0 0 0 0 0 127 0" result="hardAlpha"/>
<feOffset/>
<feColorMatrix type="matrix" values="0 0 0 0 0.0242 0 0 0 0 0.1728 0 0 0 0 0.3198 0 0 0 0.1 0"/>
<feBlend mode="normal" in2="effect2_dropShadow_10910_10888" result="effect3_dropShadow_10910_10888"/>
<feBlend mode="normal" in="SourceGraphic" in2="effect3_dropShadow_10910_10888" result="shape"/>
</filter>
</defs>
</svg>
