<svg width="16" height="14" viewBox="0 0 16 14" fill="none" xmlns="http://www.w3.org/2000/svg">
<path fill-rule="evenodd" clip-rule="evenodd" d="M6.25706 1.09858C7.02167 -0.260724 8.97875 -0.260725 9.74336 1.09858L15.3237 11.0191C16.0736 12.3523 15.1102 13.9996 13.5805 13.9996H2.4199C0.890251 13.9996 -0.0731769 12.3523 0.676753 11.0191L6.25706 1.09858ZM9.00012 10.9998C9.00012 11.552 8.55241 11.9998 8.00012 11.9998C7.44784 11.9998 7.00012 11.552 7.00012 10.9998C7.00012 10.4475 7.44784 9.99976 8.00012 9.99976C8.55241 9.99976 9.00012 10.4475 9.00012 10.9998ZM8.00012 2.99976C7.44784 2.99976 7.00012 3.44747 7.00012 3.99976V6.99976C7.00012 7.55204 7.44784 7.99976 8.00012 7.99976C8.55241 7.99976 9.00012 7.55204 9.00012 6.99976V3.99976C9.00012 3.44747 8.55241 2.99976 8.00012 2.99976Z" fill="#E53C3C"/>
</svg>
