<svg width="14" height="13" viewBox="0 0 14 13" fill="none" xmlns="http://www.w3.org/2000/svg">
<path d="M13.5625 1.0625V5C13.5625 5.49219 13.1523 5.875 12.6875 5.875H8.75C8.25781 5.875 7.875 5.49219 7.875 5C7.875 4.53516 8.25781 4.125 8.75 4.125H10.4727C9.65234 3.05859 8.36719 2.40234 6.97266 2.40234C4.56641 2.40234 2.625 4.34375 2.625 6.75C2.625 9.18359 4.56641 11.125 6.97266 11.125C7.92969 11.125 8.83203 10.8242 9.59766 10.25C9.98047 9.97656 10.5273 10.0586 10.8281 10.4414C11.1289 10.8242 11.0469 11.3711 10.6641 11.6719C9.59766 12.4648 8.3125 12.875 6.97266 12.875C3.60938 12.875 0.875 10.1406 0.875 6.75C0.875 3.38672 3.60938 0.652344 6.97266 0.652344C8.88672 0.652344 10.6367 1.52734 11.8125 3.00391V1.0625C11.8125 0.597656 12.1953 0.1875 12.6875 0.1875C13.1523 0.1875 13.5625 0.597656 13.5625 1.0625Z" fill="#6B7280"/>
</svg>
