<svg width="32" height="32" viewBox="0 0 32 32" fill="none" xmlns="http://www.w3.org/2000/svg">
<rect x="0.000244141" y="0.000244141" width="32" height="32" rx="16" fill="#222222"/>
<g clip-path="url(#clip0_11626_20448)">
<path d="M13.2575 20.2018C13.0259 20.0681 12.7483 20.2814 12.8178 20.5396L14.0204 25.0055C14.0634 25.1652 14.2276 25.26 14.3874 25.2174L18.8563 24.0259C19.1147 23.957 19.1606 23.61 18.929 23.4762L16.9593 22.339L19.9643 17.1342C20.2404 16.6559 20.0765 16.0443 19.5982 15.7682C19.1199 15.492 18.5084 15.6559 18.2322 16.1342L15.2272 21.339L13.2575 20.2018ZM17.9799 6.99496C17.9369 6.83526 17.7727 6.74049 17.6129 6.7831L13.144 7.97454C12.8856 8.04344 12.8397 8.3905 13.0713 8.52422L15.0411 9.66145L12.0361 14.8663C11.7599 15.3446 11.9238 15.9561 12.4021 16.2323C12.8804 16.5084 13.492 16.3446 13.7681 15.8663L16.7731 10.6614L18.7428 11.7987C18.9745 11.9324 19.2521 11.7191 19.1825 11.4609L17.9799 6.99496Z" fill="white"/>
</g>
<defs>
<clipPath id="clip0_11626_20448">
<rect width="24" height="24" fill="white" transform="translate(4.00024 4.00024)"/>
</clipPath>
</defs>
</svg>
