<svg width="24" height="24" viewBox="0 0 24 24" fill="none" xmlns="http://www.w3.org/2000/svg">
<path d="M4.4 11.9525C4.4 9.739 5.369 7.7535 6.889 6.3665L9.15 8.6275V2.9275H3.45L5.54 5.0175C3.678 6.7465 2.5 9.207 2.5 11.9525C2.5 16.883 6.2525 20.93 11.05 21.405V19.486C7.307 19.0205 4.4 15.819 4.4 11.9525ZM21.5 11.9525C21.5 7.022 17.7475 2.975 12.95 2.5V4.419C16.693 4.8845 19.6 8.086 19.6 11.9525C19.6 14.166 18.631 16.1515 17.111 17.5385L14.85 15.2775V20.9775H20.55L18.46 18.8875C20.322 17.1585 21.5 14.698 21.5 11.9525Z" fill="#3574F4"/>
<path d="M14.3497 12.3918C13.7013 12.1092 12.9033 11.8931 12 11.8931C11.0967 11.8931 10.2987 12.1092 9.65032 12.3974C9.05182 12.6578 8.67499 13.2563 8.67499 13.9103V14.8025H15.325V13.9047C15.325 13.2563 14.9482 12.6578 14.3497 12.3918Z" fill="#3574F4"/>
<path d="M13.6625 9.81497C13.6625 8.89505 12.9199 8.15247 12 8.15247C11.0801 8.15247 10.3375 8.89505 10.3375 9.81497C10.3375 10.7349 11.0801 11.4775 12 11.4775C12.9199 11.4775 13.6625 10.7349 13.6625 9.81497Z" fill="#3574F4"/>
</svg>
