<svg width="51" height="51" viewBox="0 0 51 51" fill="none" xmlns="http://www.w3.org/2000/svg">
<rect width="51" height="51" rx="14" fill="#6B7280"/>
<path d="M25.2578 12.25C21.1953 12.25 18.5547 13.9258 16.4727 16.9219C16.1172 17.4297 16.2188 18.1914 16.7773 18.5469L18.9609 20.2227C19.4688 20.6289 20.2305 20.5273 20.6367 20.0195C21.9062 18.4453 22.8711 17.5312 24.8516 17.5312C26.4258 17.5312 28.3555 18.4961 28.3555 20.0195C28.3555 21.1875 27.3906 21.7461 25.8672 22.6094C24.0391 23.625 21.6523 24.8945 21.6523 28.043V28.5C21.6523 29.2109 22.2109 29.7188 22.8711 29.7188H26.5781C27.2383 29.7188 27.7969 29.2109 27.7969 28.5V28.2461C27.7969 26.0625 34.1445 25.9609 34.1445 20.0703C34.1445 15.6523 29.5234 12.25 25.2578 12.25ZM24.75 31.2422C22.7695 31.2422 21.1953 32.8164 21.1953 34.7461C21.1953 36.6758 22.7695 38.25 24.75 38.25C26.6797 38.25 28.2539 36.6758 28.2539 34.7461C28.2539 32.8164 26.6797 31.2422 24.75 31.2422Z" fill="white"/>
</svg>
