<svg width="29" height="29" viewBox="0 0 29 29" fill="none" xmlns="http://www.w3.org/2000/svg">
<g filter="url(#filter0_d_4738_1139)">
<path fill-rule="evenodd" clip-rule="evenodd" d="M14.5 3C15.2495 3 15.8571 3.60761 15.8571 4.35714V11.1429H22.6429C23.3924 11.1429 24 11.7505 24 12.5C24 13.2495 23.3924 13.8571 22.6429 13.8571H15.8571V20.6429C15.8571 21.3924 15.2495 22 14.5 22C13.7505 22 13.1429 21.3924 13.1429 20.6429V13.8571H6.35714C5.60761 13.8571 5 13.2495 5 12.5C5 11.7505 5.60761 11.1429 6.35714 11.1429L13.1429 11.1429V4.35714C13.1429 3.60761 13.7505 3 14.5 3Z" fill="white"/>
<path d="M16.0571 4.35714C16.0571 3.49716 15.36 2.8 14.5 2.8C13.64 2.8 12.9429 3.49716 12.9429 4.35714V10.9429L6.35714 10.9429C5.49716 10.9429 4.8 11.64 4.8 12.5C4.8 13.36 5.49716 14.0571 6.35714 14.0571H12.9429V20.6429C12.9429 21.5028 13.64 22.2 14.5 22.2C15.36 22.2 16.0571 21.5028 16.0571 20.6429V14.0571H22.6429C23.5028 14.0571 24.2 13.36 24.2 12.5C24.2 11.64 23.5028 10.9429 22.6429 10.9429H16.0571V4.35714Z" stroke="white" stroke-width="0.4" stroke-linecap="round" stroke-linejoin="round"/>
</g>
<defs>
<filter id="filter0_d_4738_1139" x="0.599976" y="0.600006" width="27.8" height="27.8" filterUnits="userSpaceOnUse" color-interpolation-filters="sRGB">
<feFlood flood-opacity="0" result="BackgroundImageFix"/>
<feColorMatrix in="SourceAlpha" type="matrix" values="0 0 0 0 0 0 0 0 0 0 0 0 0 0 0 0 0 0 127 0" result="hardAlpha"/>
<feOffset dy="2"/>
<feGaussianBlur stdDeviation="2"/>
<feColorMatrix type="matrix" values="0 0 0 0 0 0 0 0 0 0 0 0 0 0 0 0 0 0 0.35 0"/>
<feBlend mode="normal" in2="BackgroundImageFix" result="effect1_dropShadow_4738_1139"/>
<feBlend mode="normal" in="SourceGraphic" in2="effect1_dropShadow_4738_1139" result="shape"/>
</filter>
</defs>
</svg>
