<svg width="176" height="176" viewBox="0 0 176 176" fill="none" xmlns="http://www.w3.org/2000/svg">
<rect x="2.5" y="2.5" width="171" height="171" rx="85.5" fill="black" stroke="black" stroke-width="5"/>
<path d="M115.525 121.81L113.603 110.575C109.377 115.657 103.774 119.412 97.4655 121.392C85.4658 125.175 72.9434 122.07 64.1568 114.308C63.7285 113.927 63.309 113.536 62.8983 113.135C62.4876 112.734 62.0929 112.33 61.7144 111.921L67.4899 108.577L46.5671 100.84L42.8721 122.832L48.07 119.822C48.4191 120.254 48.7683 120.686 49.131 121.107C49.4937 121.529 49.8722 121.948 50.2523 122.359C62.9963 136.165 83.0195 142.196 102.133 136.172C112.66 132.869 121.791 126.167 128.096 117.119L115.525 121.81Z" fill="white"/>
<path d="M43.9792 96.3763L54.6269 100.312C54.4504 99.8292 54.2792 99.3409 54.1231 98.8473C48.4396 80.8435 58.2857 61.6655 76.1424 55.7175C76.3226 55.6572 76.4998 55.5894 76.6823 55.5314C77.0496 55.4161 77.4176 55.3166 77.7855 55.2134C78.333 55.0626 78.8827 54.9217 79.4302 54.7974L79.4423 61.4289L96.606 47.1862L79.3933 33L79.4038 39.0196C78.8564 39.1063 78.3059 39.214 77.7584 39.3211C77.2109 39.4281 76.662 39.5403 76.1137 39.6639C74.7436 39.9729 73.3764 40.3263 72.0138 40.7559C45.6465 49.0641 31.015 77.16 39.3325 103.511C40.0015 105.616 40.8075 107.675 41.7456 109.675L43.9792 96.3763Z" fill="white"/>
<path d="M134.336 104.96C134.521 104.432 134.687 103.897 134.855 103.361C137.917 93.611 137.903 83.1558 134.815 73.4142C128.534 53.5151 110.958 40.31 91.373 38.6152L101.765 47.1842L93.0064 54.4503C105.304 56.6025 116.01 65.3539 120.024 78.0758C121.796 83.6643 122.108 89.6128 120.929 95.3555C120.814 95.9177 120.685 96.4758 120.541 97.03C120.401 97.5786 120.245 98.1211 120.08 98.6615L114.338 95.3608L118.096 117.338L139 109.539L133.747 106.518C133.949 106.001 134.15 105.484 134.336 104.96Z" fill="white"/>
</svg>