<svg width="41" height="41" viewBox="0 0 41 41" fill="none" xmlns="http://www.w3.org/2000/svg">
<rect width="41" height="41" rx="20.5" fill="white"/>
<path d="M27.4673 29.3978L26.9959 26.9998C25.9594 28.0844 24.5852 28.886 23.038 29.3086C20.095 30.1161 17.0238 29.4533 14.8687 27.7965C14.7637 27.7152 14.6608 27.6318 14.5601 27.5462C14.4593 27.4606 14.3625 27.3742 14.2697 27.2871L15.6862 26.5732L10.5547 24.9216L9.64844 29.616L10.9233 28.9735C11.0089 29.0658 11.0945 29.158 11.1835 29.2479C11.2725 29.3378 11.3653 29.4274 11.4585 29.5151C14.5841 32.462 19.495 33.7495 24.1829 32.4636C26.7646 31.7585 29.0042 30.328 30.5504 28.3965L27.4673 29.3978Z" fill="url(#paint0_linear)"/>
<path d="M9.82754 23.1831L12.5561 24.1735C12.5109 24.052 12.467 23.9291 12.427 23.8049C10.9706 19.2745 13.4937 14.4486 18.0696 12.9519C18.1158 12.9367 18.1612 12.9197 18.208 12.905C18.3021 12.876 18.3964 12.851 18.4907 12.825C18.631 12.7871 18.7718 12.7516 18.9121 12.7204L18.9152 14.3891L23.3136 10.8051L18.9027 7.23535L18.9054 8.7501C18.7651 8.77191 18.624 8.79903 18.4837 8.82595C18.3434 8.85288 18.2028 8.88114 18.0623 8.91224C17.7112 8.98998 17.3608 9.07892 17.0116 9.18701C10.2548 11.2777 6.50535 18.3476 8.63679 24.9785C8.80821 25.5082 9.01477 26.0263 9.25516 26.5295L9.82754 23.1831Z" fill="url(#paint1_linear)"/>
<path d="M31.9354 25.1037C31.9759 24.9745 32.0123 24.8433 32.0492 24.7118C32.7212 22.3222 32.7181 19.7597 32.0404 17.3722C30.6621 12.4951 26.8054 9.25864 22.5078 8.84326L24.7882 10.9434L22.8662 12.7243C25.5647 13.2518 27.9139 15.3967 28.7949 18.5147C29.1836 19.8844 29.252 21.3423 28.9934 22.7498C28.9682 22.8876 28.9398 23.0244 28.9082 23.1602C28.8775 23.2946 28.8434 23.4276 28.807 23.56L27.5471 22.7511L28.3718 28.1374L32.9588 26.2261L31.8061 25.4857C31.8503 25.359 31.8945 25.2323 31.9354 25.1037Z" fill="url(#paint2_linear)"/>
<defs>
<linearGradient id="paint0_linear" x1="10.0504" y1="25.3236" x2="28.1386" y2="30.1471" gradientUnits="userSpaceOnUse">
<stop stop-color="#29ABE2"/>
<stop offset="1" stop-color="#6DD4FF"/>
</linearGradient>
<linearGradient id="paint1_linear" x1="15.6763" y1="7.23535" x2="10.0489" y2="24.1177" gradientUnits="userSpaceOnUse">
<stop stop-color="#632684"/>
<stop offset="1" stop-color="#ED1E79"/>
</linearGradient>
<linearGradient id="paint2_linear" x1="27.7333" y1="8.84326" x2="27.7333" y2="28.1374" gradientUnits="userSpaceOnUse">
<stop stop-color="#F15A24"/>
<stop offset="1" stop-color="#FBB03B"/>
</linearGradient>
</defs>
</svg>
