<svg width="18" height="19" viewBox="0 0 18 19" fill="none" xmlns="http://www.w3.org/2000/svg">
<path d="M0 6.53125C0 6.80469 0.195312 7 0.46875 7H2.03125C2.26562 7 2.5 6.80469 2.5 6.53125V3.25H5.78125C6.01562 3.25 6.25 3.05469 6.25 2.78125V1.21875C6.25 0.984375 6.01562 0.75 5.78125 0.75H0.9375C0.390625 0.75 0 1.17969 0 1.6875V6.53125ZM11.25 1.21875V2.78125C11.25 3.05469 11.4453 3.25 11.7188 3.25H15V6.53125C15 6.80469 15.1953 7 15.4688 7H17.0312C17.2656 7 17.5 6.80469 17.5 6.53125V1.6875C17.5 1.17969 17.0703 0.75 16.5625 0.75H11.7188C11.4453 0.75 11.25 0.984375 11.25 1.21875ZM17.0312 12H15.4688C15.1953 12 15 12.2344 15 12.4688V15.75H11.7188C11.4453 15.75 11.25 15.9844 11.25 16.2188V17.7812C11.25 18.0547 11.4453 18.25 11.7188 18.25H16.5625C17.0703 18.25 17.5 17.8594 17.5 17.3125V12.4688C17.5 12.2344 17.2656 12 17.0312 12ZM6.25 17.7812V16.2188C6.25 15.9844 6.01562 15.75 5.78125 15.75H2.5V12.4688C2.5 12.2344 2.26562 12 2.03125 12H0.46875C0.195312 12 0 12.2344 0 12.4688V17.3125C0 17.8594 0.390625 18.25 0.9375 18.25H5.78125C6.01562 18.25 6.25 18.0547 6.25 17.7812Z" fill="#3574F4"/>
</svg>
