<svg width="21" height="21" viewBox="0 0 21 21" fill="none" xmlns="http://www.w3.org/2000/svg">
<path d="M20.4141 6.08594C21.1562 5.34375 21.1562 4.13281 20.4141 3.42969L18.0703 1.08594C17.3672 0.34375 16.1562 0.34375 15.4141 1.08594L13.6172 2.88281C13.4609 3.03906 13.4609 3.35156 13.6172 3.54688L17.9531 7.88281C18.1484 8.03906 18.4609 8.03906 18.6172 7.88281L20.4141 6.08594ZM12.0938 4.40625L1.82031 14.6797L1 19.4062C0.882812 20.0703 1.42969 20.6172 2.09375 20.5L6.82031 19.6797L17.0938 9.40625C17.2891 9.25 17.2891 8.9375 17.0938 8.74219L12.7578 4.40625C12.5625 4.25 12.25 4.25 12.0938 4.40625ZM4.4375 17.0625H6.3125V18.5078L3.77344 18.9375L2.5625 17.7266L2.99219 15.1875H4.4375V17.0625Z" fill="white"/>
</svg>
