<svg width="41" height="41" viewBox="0 0 41 41" fill="none" xmlns="http://www.w3.org/2000/svg">
<rect width="41" height="41" rx="20.5" fill="black"/>
<path d="M28.1502 13.6667C26.4874 13.6667 24.6749 14.5188 22.759 16.1971C21.8502 16.9923 21.0653 17.8444 20.4766 18.526C20.4766 18.526 20.4766 18.526 20.4817 18.5312V18.526C20.4817 18.526 21.4112 19.5382 22.4389 20.6226C22.9914 19.9668 23.7867 19.0734 24.7007 18.2678C26.4048 16.7755 27.5151 16.4605 28.1502 16.4605C30.5411 16.4605 32.4828 18.3556 32.4828 20.6846C32.4828 22.998 30.536 24.8932 28.1502 24.9087C28.0418 24.9087 27.9024 24.8932 27.7268 24.8571C28.4239 25.1566 29.1727 25.3735 29.8853 25.3735C34.2644 25.3735 35.1216 22.5178 35.1784 22.3112C35.3075 21.7897 35.3746 21.2423 35.3746 20.6794C35.3746 16.8168 32.1316 13.6667 28.1502 13.6667Z" fill="url(#paint0_linear)"/>
<path d="M12.8533 27.7123C14.5161 27.7123 16.3287 26.8603 18.2445 25.182C19.1533 24.3867 19.9383 23.5347 20.527 22.853C20.527 22.853 20.527 22.853 20.5218 22.8479V22.853C20.5218 22.853 19.5923 21.8409 18.5647 20.7565C18.0121 21.4123 17.2169 22.3057 16.3028 23.1112C14.5987 24.6036 13.4885 24.9186 12.8533 24.9186C10.4624 24.9186 8.52073 23.0235 8.52073 20.6945C8.52073 18.381 10.4675 16.4859 12.8533 16.4704C12.9617 16.4704 13.1012 16.4859 13.2767 16.522C12.5796 16.2225 11.8308 16.0056 11.1182 16.0056C6.73916 16.0056 5.88194 18.8613 5.82514 19.0679C5.69604 19.5894 5.62891 20.1368 5.62891 20.6997C5.62891 24.5623 8.87188 27.7123 12.8533 27.7123Z" fill="url(#paint1_linear)"/>
<path d="M29.8767 25.3127C27.6356 25.2559 25.3066 23.4898 24.8315 23.0509C23.6025 21.9148 20.7675 18.8422 20.5454 18.5995C18.4695 16.2757 15.6552 13.6731 12.8563 13.6731H12.8511H12.846C9.44807 13.6886 6.58723 15.9917 5.82812 19.0643C5.88493 18.8629 7.00551 15.9504 11.116 16.0537C13.3572 16.1105 15.6965 17.9024 16.1767 18.3413C17.4058 19.4774 20.2408 22.55 20.4628 22.7927C22.5387 25.1165 25.3531 27.7191 28.152 27.7191H28.1571H28.1623C31.5602 27.7036 34.421 25.4005 35.1801 22.3279C35.1182 22.5241 33.9924 25.4108 29.8767 25.3127Z" fill="#29ABE2"/>
<defs>
<linearGradient id="paint0_linear" x1="24.3895" y1="14.5929" x2="34.212" y2="24.7643" gradientUnits="userSpaceOnUse">
<stop offset="0.21" stop-color="#F15A24"/>
<stop offset="0.6841" stop-color="#FBB03B"/>
</linearGradient>
<linearGradient id="paint1_linear" x1="16.614" y1="26.7862" x2="6.79158" y2="16.6148" gradientUnits="userSpaceOnUse">
<stop offset="0.21" stop-color="#ED1E79"/>
<stop offset="0.8929" stop-color="#522785"/>
</linearGradient>
</defs>
</svg>
