<svg width="33" height="39" viewBox="0 0 33 39" fill="none" xmlns="http://www.w3.org/2000/svg">
<path d="M30.9375 38.5635C32.0547 38.5635 33 37.7041 33 36.501V34.4385C33 33.3213 32.0547 32.376 30.9375 32.376H2.0625C0.859375 32.376 0 33.3213 0 34.4385V36.501C0 37.7041 0.859375 38.5635 2.0625 38.5635H30.9375ZM11 2.12598V13.8135H3.4375C1.89062 13.8135 1.11719 15.7041 2.23438 16.8213L15.2969 29.8838C15.8984 30.4854 17.0156 30.4854 17.6172 29.8838L30.6797 16.8213C31.7969 15.7041 31.0234 13.8135 29.4766 13.8135H22V2.12598C22 1.00879 21.0547 0.0634766 19.9375 0.0634766H13.0625C11.8594 0.0634766 11 1.00879 11 2.12598Z" fill="#111827"/>
</svg>
