<svg width="2701" height="3921" viewBox="0 0 2701 3921" fill="none" xmlns="http://www.w3.org/2000/svg">
<path d="M505 60C505 26.8629 531.863 0 565 0H839C872.137 0 899 26.8629 899 60V966H505V60Z" fill="#031514"/>
<path d="M1793 60C1793 26.8629 1819.86 0 1853 0H2127C2160.14 0 2187 26.8629 2187 60V966H1793V60Z" fill="#031514"/>
<path d="M0 1124.21C0 1037.06 70.642 966.422 157.783 966.422H2542.28C2629.43 966.422 2700.07 1037.06 2700.07 1124.21V1910.16C2700.07 2655.77 2095.64 3260.2 1350.03 3260.2C604.431 3260.2 0 2655.77 0 1910.16V1124.21Z" fill="url(#paint0_linear)"/>
<path d="M899.365 3145.8H1800.7V3258.23C1800.7 3421.62 1668.25 3554.07 1504.86 3554.07H1195.21C1031.82 3554.07 899.365 3421.62 899.365 3258.23V3145.8Z" fill="url(#paint1_linear)"/>
<path d="M1045.31 3506.73H1654.75V3717.77C1654.75 3826.7 1566.45 3915 1457.52 3915H1242.54C1133.62 3915 1045.31 3826.7 1045.31 3717.77V3506.73Z" fill="url(#paint2_linear)"/>
<path fill-rule="evenodd" clip-rule="evenodd" d="M2593.17 2437.56C2385.17 1678.25 1690.17 1120.26 864.85 1120.26C551.223 1120.26 256.416 1200.84 0 1342.42V1910.16C0 2497.73 375.359 2997.63 899.365 3183.15V3258.23C899.365 3366.91 957.976 3461.91 1045.31 3513.34V3717.77C1045.31 3826.7 1133.62 3915 1242.54 3915H1457.52C1566.45 3915 1654.75 3826.7 1654.75 3717.77V3513.34C1742.09 3461.91 1800.7 3366.91 1800.7 3258.23V3183.15C2157.82 3056.71 2445.9 2784.26 2593.17 2437.56Z" fill="url(#paint3_linear)"/>
<path fill-rule="evenodd" clip-rule="evenodd" d="M2270.38 2897.88C2204.25 2137.18 1565.79 1540.36 787.931 1540.36C498.568 1540.36 228.495 1622.95 0 1765.84V1910.16C0 2497.73 375.359 2997.63 899.365 3183.15V3258.23C899.365 3366.91 957.976 3461.91 1045.31 3513.34V3717.77C1045.31 3826.7 1133.62 3915 1242.54 3915H1457.52C1566.45 3915 1654.75 3826.7 1654.75 3717.77V3513.34C1742.09 3461.91 1800.7 3366.91 1800.7 3258.23V3183.15C1976.95 3120.75 2136.39 3022.78 2270.38 2897.88Z" fill="url(#paint4_linear)"/>
<path fill-rule="evenodd" clip-rule="evenodd" d="M1803 3184.71C1774.92 2561.56 1262.69 2065 634.918 2065C416.727 2065 212.494 2124.98 37.6953 2229.42C146.383 2674.73 474.04 3033.76 899.59 3184.98V3260.44C899.59 3369.69 958.285 3465.18 1045.75 3516.88V3722.37C1045.75 3831.86 1134.18 3920.61 1243.27 3920.61H1458.56C1567.65 3920.61 1656.08 3831.86 1656.08 3722.37V3516.88C1743.54 3465.18 1802.24 3369.69 1802.24 3260.44V3184.98C1802.49 3184.89 1802.75 3184.8 1803 3184.71Z" fill="url(#paint5_linear)"/>
<g filter="url(#filter0_i)">
<path d="M673.133 2339.6C666.796 2338.36 660.96 2343.39 661.365 2349.84C681.428 2669.31 982.987 2922.93 1352.05 2922.93C1720.27 2922.93 2021.29 2670.48 2042.6 2352.05C2043.03 2345.6 2037.21 2340.54 2030.87 2341.76C1816.09 2383.12 1585 2423.42 1352.05 2423.42C1115.02 2423.42 890.87 2382.34 673.133 2339.6Z" fill="url(#paint6_linear)"/>
</g>
<path d="M704.109 2390.42C715.991 2490.79 1008.42 2613.29 1356.49 2613.29C1703.77 2613.29 1990.78 2490.48 2003.85 2390.42C1800.68 2403.43 1783.94 2468.14 1356.49 2468.14C907.255 2468.14 910.406 2403.86 704.109 2390.42Z" fill="url(#paint7_linear)"/>
<path d="M1300 1734.95C1198.43 1921.41 1039.66 2109.84 856.234 2104.91C668.88 2104.91 517 1939.27 517 1734.95C517 1530.63 668.88 1365 856.234 1365C1043.59 1365 1181.66 1528.77 1300 1734.95Z" fill="url(#paint8_linear)"/>
<path d="M1400 1735.49C1501.57 1918.24 1660.34 2109.75 1843.77 2104.91C2031.12 2104.91 2183 1935.75 2183 1735.49C2183 1535.23 2032.11 1365 1844.75 1365C1657.4 1365 1518.34 1533.4 1400 1735.49Z" fill="url(#paint9_linear)"/>
<circle cx="988.542" cy="1797.18" r="89.1743" fill="#031514"/>
<circle cx="1019.7" cy="1836.94" r="30.0829" fill="white"/>
<circle cx="1712.37" cy="1797.18" r="89.1743" fill="#031514"/>
<circle cx="1743.53" cy="1836.94" r="30.0829" fill="white"/>
<path d="M1301.87 1738.58L518.972 1779C517.283 1764.21 516.021 1757.31 516.019 1746.47C514.047 1528.61 666.883 1363 859.155 1363C1051.43 1363 1201.29 1553.26 1299.9 1733.65C1299.07 1735.17 1302.71 1737.06 1301.87 1738.58Z" fill="#031514"/>
<path d="M1398.13 1738.58L2181.83 1779C2183.52 1764.21 2183.78 1757.31 2183.78 1746.47C2190.71 1532.55 2032.95 1363 1840.73 1363C1648.51 1363 1498.68 1553.26 1400.1 1733.65C1400.93 1735.17 1397.29 1737.06 1398.13 1738.58Z" fill="#031514"/>
<g filter="url(#filter1_i)">
<path d="M1839.17 1272C1600.49 1272 1426.76 1510.33 1351 1637.52C1275.24 1510.33 1101.51 1272 862.831 1272C621.927 1272 426 1479.49 426 1734.5C426 1989.51 621.927 2197 862.831 2197C1101.48 2197 1275.24 1958.67 1351 1831.45C1426.76 1958.67 1600.49 2197 1839.17 2197C2080.07 2197 2276 1989.51 2276 1734.5C2276 1479.49 2080.07 1272 1839.17 1272ZM862.831 2104.5C672.975 2104.5 518.5 1938.52 518.5 1734.5C518.5 1530.48 672.975 1364.5 862.831 1364.5C1088.39 1364.5 1257.31 1655.33 1299.14 1734.5C1257.31 1813.67 1088.42 2104.5 862.831 2104.5ZM1839.17 2104.5C1613.61 2104.5 1444.69 1813.67 1402.86 1734.5C1444.69 1655.33 1613.61 1364.5 1839.17 1364.5C2029.03 1364.5 2183.5 1530.48 2183.5 1734.5C2183.5 1938.52 2029.03 2104.5 1839.17 2104.5Z" fill="url(#paint10_linear)"/>
</g>
<defs>
<filter id="filter0_i" x="661.346" y="2339.41" width="1381.27" height="583.521" filterUnits="userSpaceOnUse" color-interpolation-filters="sRGB">
<feFlood flood-opacity="0" result="BackgroundImageFix"/>
<feBlend mode="normal" in="SourceGraphic" in2="BackgroundImageFix" result="shape"/>
<feColorMatrix in="SourceAlpha" type="matrix" values="0 0 0 0 0 0 0 0 0 0 0 0 0 0 0 0 0 0 127 0" result="hardAlpha"/>
<feOffset/>
<feGaussianBlur stdDeviation="17.5"/>
<feComposite in2="hardAlpha" operator="arithmetic" k2="-1" k3="1"/>
<feColorMatrix type="matrix" values="0 0 0 0 0 0 0 0 0 0 0 0 0 0 0 0 0 0 0.64 0"/>
<feBlend mode="normal" in2="shape" result="effect1_innerShadow"/>
</filter>
<filter id="filter1_i" x="426" y="1272" width="1850" height="925" filterUnits="userSpaceOnUse" color-interpolation-filters="sRGB">
<feFlood flood-opacity="0" result="BackgroundImageFix"/>
<feBlend mode="normal" in="SourceGraphic" in2="BackgroundImageFix" result="shape"/>
<feColorMatrix in="SourceAlpha" type="matrix" values="0 0 0 0 0 0 0 0 0 0 0 0 0 0 0 0 0 0 127 0" result="hardAlpha"/>
<feOffset/>
<feGaussianBlur stdDeviation="17.5"/>
<feComposite in2="hardAlpha" operator="arithmetic" k2="-1" k3="1"/>
<feColorMatrix type="matrix" values="0 0 0 0 0 0 0 0 0 0 0 0 0 0 0 0 0 0 0.64 0"/>
<feBlend mode="normal" in2="shape" result="effect1_innerShadow"/>
</filter>
<linearGradient id="paint0_linear" x1="1801.69" y1="1816.48" x2="2773.04" y2="844.14" gradientUnits="userSpaceOnUse">
<stop stop-color="#46FF47"/>
<stop offset="1" stop-color="#9CFF9D"/>
</linearGradient>
<linearGradient id="paint1_linear" x1="1801.69" y1="1816.48" x2="2773.04" y2="844.14" gradientUnits="userSpaceOnUse">
<stop stop-color="#46FF47"/>
<stop offset="1" stop-color="#9CFF9D"/>
</linearGradient>
<linearGradient id="paint2_linear" x1="1801.69" y1="1816.48" x2="2773.04" y2="844.14" gradientUnits="userSpaceOnUse">
<stop stop-color="#46FF47"/>
<stop offset="1" stop-color="#9CFF9D"/>
</linearGradient>
<linearGradient id="paint3_linear" x1="1566.99" y1="2002.86" x2="2045.27" y2="1367.78" gradientUnits="userSpaceOnUse">
<stop stop-color="#10D9ED"/>
<stop offset="1" stop-color="#10D9ED" stop-opacity="0.3"/>
</linearGradient>
<linearGradient id="paint4_linear" x1="1460.48" y1="2228.69" x2="1784.92" y2="1603.47" gradientUnits="userSpaceOnUse">
<stop stop-color="#FA51D3"/>
<stop offset="0.958774" stop-color="#FA51D3" stop-opacity="0"/>
</linearGradient>
<linearGradient id="paint5_linear" x1="1012.44" y1="3149.42" x2="1501.46" y2="1903.67" gradientUnits="userSpaceOnUse">
<stop stop-color="#FFE700"/>
<stop offset="1" stop-color="#FFE700" stop-opacity="0"/>
</linearGradient>
<linearGradient id="paint6_linear" x1="1352.01" y1="2337.16" x2="1352.01" y2="2922.93" gradientUnits="userSpaceOnUse">
<stop/>
<stop offset="1" stop-opacity="0.65"/>
</linearGradient>
<linearGradient id="paint7_linear" x1="1541.35" y1="2421.97" x2="1541.35" y2="2579.76" gradientUnits="userSpaceOnUse">
<stop offset="0.75" stop-color="white"/>
<stop offset="1" stop-color="#DEDEDF"/>
</linearGradient>
<linearGradient id="paint8_linear" x1="1021.38" y1="1469.78" x2="1021.37" y2="1993.67" gradientUnits="userSpaceOnUse">
<stop offset="0.75" stop-color="white"/>
<stop offset="1" stop-color="#DEDEDF"/>
</linearGradient>
<linearGradient id="paint9_linear" x1="1678.62" y1="1469.78" x2="1678.63" y2="1993.67" gradientUnits="userSpaceOnUse">
<stop offset="0.75" stop-color="white"/>
<stop offset="1" stop-color="#DEDEDF"/>
</linearGradient>
<linearGradient id="paint10_linear" x1="1351" y1="1272" x2="1351" y2="2197" gradientUnits="userSpaceOnUse">
<stop/>
<stop offset="1" stop-opacity="0.65"/>
</linearGradient>
</defs>
</svg>