<svg width="9" height="11" viewBox="0 0 9 11" fill="none" xmlns="http://www.w3.org/2000/svg">
<path d="M6.55706 7.84167L5.04692 9.34476L5.04678 9.3449C4.87353 9.518 4.87327 9.79818 5.0474 9.97083L6.55706 7.84167ZM6.55706 7.84167H3.35097C2.00421 7.84167 0.904681 6.75257 0.9 5.4114V5.41105V1.31034C0.9 1.19429 0.937217 1.08956 1.01299 1.01359C1.0888 0.937583 1.1936 0.9 1.31034 0.9C1.42546 0.9 1.54175 0.936329 1.6314 1.00469C1.72239 1.07409 1.78841 1.17925 1.78841 1.31034V5.40984C1.79141 6.26261 2.492 6.95728 3.35095 6.95728H6.55017L5.04657 5.4607L5.04643 5.46056C4.87313 5.28741 4.873 5.00763 5.04697 4.83471L5.04715 4.83453C5.13372 4.74892 5.24741 4.70572 5.36083 4.70572C5.47415 4.70572 5.58833 4.74887 5.67502 4.83506L5.67508 4.83511L7.93994 7.09006C8.11379 7.26288 8.11391 7.54313 7.94027 7.71575L5.67546 9.97031C5.50175 10.1434 5.22087 10.1429 5.0474 9.97084L6.55706 7.84167Z" fill="#111827" stroke="#111827" stroke-width="0.2"/>
</svg>
