<svg width="13" height="20" viewBox="0 0 13 20" fill="none" xmlns="http://www.w3.org/2000/svg">
<path fill-rule="evenodd" clip-rule="evenodd" d="M11.644 0.31231C11.9486 0.0224575 12.4119 0.41769 12.1736 0.764189L9.27023 4.98665C9.10257 5.23048 9.29435 5.55941 9.58913 5.53363L11.1613 5.3961C11.4731 5.36882 11.6612 5.73334 11.4582 5.97168L7.79129 10.2781C7.58835 10.5165 7.77643 10.881 8.08827 10.8537L9.70071 10.7127C10.0306 10.6838 10.2123 11.0867 9.97246 11.3149L1.38177 19.4883C1.07711 19.7781 0.61386 19.3829 0.852114 19.0364L3.81199 14.7318C3.97965 14.4879 3.78786 14.159 3.49308 14.1848L1.86256 14.3275C1.55175 14.3547 1.36337 13.9924 1.56416 13.7536L5.11438 9.53131C5.31517 9.29251 5.12679 8.9302 4.81599 8.95739L3.32516 9.08782C2.99531 9.11668 2.81352 8.71381 3.0534 8.48558L11.644 0.31231Z" fill="#111827"/>
</svg>
